<svg viewBox="0 0 256 256" xmlns="http://www.w3.org/2000/svg"><path d="m0 0h256v256h-256z" fill="#1b1c1d"/><path d="m202 225v-19l4-2.5 6-6 2.5-5.5 4.5 1 2 5.5 3.5 6-5.5 14.5-17 15z" fill="#9f5239"/><path d="m149.5 55-6 2.5 4.5 9 15 5.5 21.5-4 12-10.5 5-6-3.5-6h-13.5l-14 1-9.5-1-6.5-3.5-3.5 3.5z" fill="#c8a777"/><g fill="#6aa99e"><path d="m89.5 68.5v-6.5l2 1.5 2.5 6.5h-3.5z"/><path d="m44 76 3-2.5 1.5 2.5-1.5 2.5-1.5 1-1.5-1z"/><path d="m49.5 83 1-3 2 2.5-.5 2h-1.5z"/><path d="m38 221 15.5-13v13l-6 6h-9.5z"/><path d="m29.5 209.5v-7.5l4.5 4.5z"/></g><path d="m34 199v-11.5l10-4 14.5 11.5 3.5 12.5z" fill="#9f5239"/><path d="m100.5 230.5 26-19.5 6 11.5v14.5l-6 9h-16l-10-6z" fill="#6aa99e"/><path d="m80.5 237 15.5 9.5-5 12.5h-10.5l-10.5-5v-11z" fill="#6aa99e"/><path d="m82.5 231.5 12 7-3-7-9-7z" fill="#c8a777"/><path d="m28.5 98.5 6.5-5.5 2.5 5.5-2.5 5h-6.5z" fill="#c8a777"/><path d="m83 137v4.5l-7-3h-5l-6.5 5.5v14l5 3.5 11-6.5 2.5-6.5 1.5 2h3.5l2.5-9-4.5-6.5z" fill="#9f5239"/><path d="m48.5 135.5h-5.5v11h13l16-13.5h-10.5l-9-2.5h-4z" fill="#c8a777"/><path d="m100 139 8.5-13.5 14.5 13.5v9.5l-7 11.5-10.5 2.5v-6.5l-5.5-11.5z" fill="#6aa99e"/><path d="m147 177 5.5 2.5 2.5 1v1.5l-1.5 3.5 1.5 6-1.5 1.5h-10.5l-3-7.5 1-6z" fill="#c8a777"/><path d="m88 201.5 15.5-11.5 5 16-5 6.5v4.5h-9l-6.5-4.5z" fill="#9f5239"/><path d="m159.5 149v6l8.5 6 15.5 4 14-4 6-6h-13.5l-6.5-6v-6l-6.5-5h-9z" fill="#6aa99e"/><path d="m223.5 101.5-11 17.5-3 3 5.5 5h18l5-5-5-6v-17.5z" fill="#c8a777"/><path d="m204.5 121 4.5 7.5-6.5 1.5-2.5-5.5v-3.5z" fill="#c8a777"/><path d="m228 145.5 16.5 3v4l2.5 3-12 13-4.5 4-2.5-9-4.5-11z" fill="#9f5239"/><path d="m226.5 181.5 3.5-3 3.5 3v4h-3.5z" fill="#6aa99e"/><path d="m217 161-1 2-2.5 1.5-4-1v-2l1.5-2h3.5z" fill="#c8a777"/><path d="m231 190 4.5-4.5 2 3-2 1.5z" fill="#6aa99e"/><path d="m220.5 183h4.5v6.5h-4.5l-2-2z" fill="#6aa99e"/><path d="m179 194.5 6.5 2.5v5l-6.5 3z" fill="#6aa99e"/><path d="m172.5 207.5 4.5 4v6l-8.5 8.5-10 2.5 3-5.5v-11.5l2-4z" fill="#c8a777"/><path d="m157.5 238.5 17.5-2 3.5 4-6.5 11-11 3-14.5-6v-8l3.5-4z" fill="#6aa99e"/><path d="m134.5 248 18 9h-20l-2-7z" fill="#9f5239"/><path d="m233.5 207.5h10l4.5 4-4.5 4.5-8 2-5-2z" fill="#6aa99e"/><path d="m234 220.5 10-1v1l-8.5 1.5z" fill="#c8a777"/><path d="m169 180.5 5-3.5-8-2.5-10 2.5h7.5z" fill="#9f5239"/><path d="m157 180.5 3-1.5 2 3-2 3.5h-2.5z" fill="#c8a777"/><path d="m149.5 168.5 3.5 2.5-1 1.5h-4.5l-1.5-1.5z" fill="#9f5239"/><path d="m150 203.5 2.5-3-11.5-1.5v1.5z" fill="#9f5239"/><path d="m59 215 5.5-3h2.5 6l5 3-7 21-6.5 4-5.5-15z" fill="#c8a777"/><path d="m62.5 200.5 3 5.5 8-5.5 2-6.5-7-11v4.5l-3 3-3 3.5z" fill="#c8a777"/><path d="m85 199v-3.5l9-2.5-5.5 6z" fill="#c8a777"/><path d="m75 176 2.5 2.5h6l7.5-2.5 3.5-9.5v-4.5l-6 4.5h-8.5l-5 3.5z" fill="#6aa99e"/><path d="m19 163h5.5l5 3.5v4l-4 15v10l-6.5 1.5h-3l-3.5-4 3.5-11v-11.5z" fill="#9f5239"/><path d="m11.5 165.5 5.5-5.5-3-5.5-5.5-2.5h-9.5v9.5l3 7 6.5 4z" fill="#6aa99e"/><path d="m24.5 214h7.5v4l-5 3h-7z" fill="#9f5239"/><path d="m28.5 223 4-2.5 2 1-1.5 1.5z" fill="#9f5239"/><path d="m18 200 1.5-1 1 1-.5 1.5-2 1.5z" fill="#c8a777"/><path d="m59 190.5 1-2 3 2-1 1.5h-2z" fill="#6aa99e"/><path d="m8 104-9-4.5v32l9 6h12l9-7-9-5.5v-6h-5.5v-6.5z" fill="#c8a777"/><path d="m10.5 45.5h5v-2-4.5l4.5-4.5 7 4.5 16.5 6.5 8.5 4 3 9-5 10-6.5 2.5-8-2.5-6-7.5-14-5-5-3.5v-3z" fill="#6aa99e"/><path d="m30 73.5 1 3h-2l-2-1-1-4.5z" fill="#6aa99e"/><path d="m6 66.5 4 4v3.5h-5l-6.5-2v-2.5l3-3z" fill="#9f5239"/><path d="m7 95 2.5-1.5-1-2-1.5-3.5-3 1 1 4.5z" fill="#c8a777"/><path d="m14 93.5-4.5 2.5 1.5 1.5 3 1 3.5-1-1-3z" fill="#c8a777"/><path d="m18 103h3l3 1.5v1.5l-1 5.5-3-1h-3.5l-1.5-4.5z" fill="#9f5239"/><path d="m49 35 3 4.5h5.5 5l3.5-9.5-3.5-10-5-2-8.5 8z" fill="#c8a777"/><path d="m69 14.5-2.5 4v4.5l2.5 4.5 7.5 9h7l5.5-3.5v-5.5l7-4.5h-7l-5.5-2.5v-6l-7-3.5-3.5 3.5z" fill="#c8a777"/><path d="m68 10 4 1 1.5-2.5-2-1.5-2.5-2.5-2.5-.5-.5 2.5z" fill="#c8a777"/><path d="m93.5 35.5v-2l7 3 1 4.5-1 1.5-3.5-1.5z" fill="#9f5239"/><path d="m105.5 43.5-1-2-.5-.5 3.5.5v2z" fill="#6aa99e"/><path d="m110 44-.5-2.5 1.5-.5 1.5 1.5z" fill="#6aa99e"/><path d="m115 42.5-1-1.5 2-1 1.5 1v1.5z" fill="#6aa99e"/><path d="m113.5 36.5v-2l5-.5 3 2-.5 4-1.5-1.5-4.5-.5z" fill="#6aa99e"/><path d="m134 53.5 4 2.5v.5l1 2-3 8.5h-3l-6.5-8.5 3-4z" fill="#9f5239"/><path d="m96.5 70.5v-4h3.5v2.5l-1.5 2.5z" fill="#6aa99e"/><path d="m141.5 42.5 2.5-3.5v-1.5l-2.5-4.5-2-7-2.5 1.5-2.5-6-2.5 6v10l5 5z" fill="#9f5239"/><path d="m140 46 5.5-2 1.5 2-1.5 2h-2z" fill="#c8a777"/><path d="m193 34 4 2 6-4 2-6.5-2-9-6-6.5 1.5 4-1.5 4.5-4 3-2.5 7.5z" fill="#6aa99e"/><path d="m191.5 19-1.5 3-3-1.5v-5.5-2l3 2z" fill="#6aa99e"/><path d="m187 34 5 2v2.5h-5l-3-1.5 1-3z" fill="#6aa99e"/><path d="m137.5 46-5-5v5l2 2 3 1 3-1z" fill="#9f5239"/><path d="m60.5 15.5h-2.5l-2.5-1.5-11-6-5.5-10 13-1 8.5 8 2 4v3.5z" fill="#6aa99e"/><path d="m50.5 14 1.5 2-1.5 2.5h-2.5-5l-4-2.5v-3l6-1z" fill="#6aa99e"/><path d="m74 5.5 3.5 1.5 2.5-1.5v-1.5l-4-5.5h-4.5v4.5z" fill="#6aa99e"/><path d="m43 20.5 4 1.5v2l-2 1-5.5 1.5-3-1.5v-2l1.5-2.5z" fill="#6aa99e"/><path d="m60.5 49-2.5-2-1 2 1 5 2.5 1.5 1-1.5z" fill="#9f5239"/><path d="m239.5 55.5 11.5 3.5 8.5 4 4.5 17.5-13 2-8.5-2-3-1.5v-4l-3-6-2-6 2-4z" fill="#6aa99e"/><path d="m225.5 90 3.5-10.5-10-1.5-8.5-2-8 3.5-5 8v6l3 7.5 7 3 5.5-5.5h8.5l5.5-3z" fill="#6aa99e"/><path d="m197.5 76.5 5-2 7.5-6.5v-5l-4.5-1.5-8 1.5-9.5 8v3.5z" fill="#9f5239"/><g filter="url(#a)"><path d="m194 102 3 2.5-3 2-5-4.5z" fill="#9f5239"/></g><path d="m190.5 151-2.5-4.5h2.5l4 2v2.5z" fill="#6aa99e"/><path d="m182 169h7.5l2 2-2 1.5h-5.5z" fill="#6aa99e"/><path d="m175 165.5 3.5 3v3l-7.5-3v-3z" fill="#6aa99e"/><path d="m206.5 154-4.5-3.5 2-1.5 5.5 1.5 3 1-1 4z" fill="#9f5239"/><path d="m216 158.5-1.5-5 1.5.5 1 4.5z" fill="#c8a777"/><path d="m181 178.5v-5l2.5 5-1 1.5z" fill="#9f5239"/><path d="m208 197-5 3h-1.5v-2l-2-2.5-1.5-4v-3.5l1.5-1.5 3.5 2.5h2l4.5 1 1.5 1.5z" fill="#6aa99e"/><path d="m216 231 4.5-5h6v5l-6 4h-4.5z" fill="#c8a777"/><path d="m232.5 75.5v1.5h-3.5l-7-1.5v-3.5h7z" fill="#9f5239"/><path d="m247.5 87.5 3.5-1.5 1 2.5-2.5 2h-2z" fill="#6aa99e"/><path d="m253.5 90.5 2.5-1.5 2 1.5-4.5 3z" fill="#6aa99e"/><path d="m239 33.5-1 3-3 .5-2-3.5v-2.5l1.5-1z" fill="#c8a777"/><path d="m240.5 37.5v2.5l1 1 3-.5 2.5-3v-2.5l-4 1z" fill="#c8a777"/><path d="m243.5 29.5 2 1.5 3.5-2 1.5-4.5-1.5-5-1.5-1-2.5 1-2.5 5.5z" fill="#c8a777"/><path d="m231 11 3-1.5 1.5-1.5.5-4.5-6 4h-4v2l1.5 1.5z" fill="#6aa99e"/><path d="m194.5 42.5 11.5-4h4.5l-4.5 6-4 2.5-1.5-2.5z" fill="#c8a777"/><path d="m206 48.5 1-1.5 1.5 1.5v1l-1 2h-1z" fill="#9f5239"/><path d="m179.629 75v27.2h-36.16v92.8h-32v-92.8h-36.1596v-27.2z" fill="#fff"/></svg>
